<svg xmlns:xlink="http://www.w3.org/1999/xlink" xmlns="http://www.w3.org/2000/svg" class="Logo__icon Icon"
     viewBox="0 0 1271 251.8" width="1271" height="251.8">
  <defs>
    <symbol fill="#ff5200" viewBox="0 0 1271 251.8" id="CitilinkLogo">
      <path
        d="M336 78c22 0 30 14 31 18h20c-2-8-12-36-51-36-30 0-53 24-53 56s23 55 54 55c38 0 49-28 50-35h-19c-2 3-10 17-31 17-20 0-34-16-34-37s14-38 33-38zM429 143V63h-19v106h19l62-81v81h19V63h-19zM528 80h43v89h19V80h43V63H528zM670 143V63h-19v106h19l62-81v81h19V63h-19zM792 122c-3 24-6 31-20 31h-3v17h6c22 0 31-15 34-47l4-43h44v89h19V63h-79l-5 59zM926 143V63h-19v106h19l62-81v81h19V63h-19zM1117 106h-59V63h-20v106h20v-45h59v45h20V63h-20zM1207 114l62-51h-27l-56 46V63h-19v106h19v-49l59 49h27zM175 202 59 224c-30 5-57-18-57-48V49C2 19 29-4 59 2l116 21c17 4 30 19 30 36v107c0 18-13 33-30 36"></path>
      <path
        d="M65 157V72c0-4 3-7 7-6l85 12V59L76 47c-16-3-30 10-30 26v84c0 16 14 28 30 25l81-12v-19l-85 12c-4 1-7-2-7-6"
        style="fill:#fff"></path>
      <g>
        <path
          d="M291 206h23v31h-5v-25h-13l-1 12c-1 9-4 14-10 14h-2v-5h1c4 0 5-2 5-9l2-18zM334 237l-14-30h7l10 23 11-23h6l-21 45h-6zM381 226h-9c-8 1-13-3-13-11v-9h6v8c0 5 1 7 7 7h9v-15h6v31h-6v-11zM402 206v26h15v-26h6v26h14v-26h6v32h-46v-32zM482 223h-26c1 5 5 10 11 10s9-3 9-4h6c-1 2-5 9-15 9s-16-7-16-16c0-10 6-16 15-16 10 0 16 7 16 17m-25-5h19c-1-5-5-7-10-7-4 0-8 2-9 7M519 223h-25c0 5 4 10 10 10s9-3 9-4h6c0 2-4 9-15 9-9 0-16-7-16-16 0-10 7-16 16-16s15 7 15 17m-25-5h19c-1-5-5-7-9-7-5 0-9 2-10 7M537 247v-15h4c2-2 3-6 4-14l1-11h23v25h5v15h-5v-10h-27v10h-5zm26-35h-13v6c-1 8-2 12-4 14h17v-20zM586 206h23v31h-5v-25h-13l-1 12c-1 9-4 14-10 14h-2v-5h1c4 0 5-2 6-9l1-18zM640 238v-12h-9l-8 12h-6l8-12c-5-2-7-5-7-10s3-10 11-10h17v31h-6v1zm0-17v-9h-11c-3 0-5 1-5 4s2 5 5 5h11zM680 212h-13v-6h31v6h-13v26h-5zM733 223h-26c1 5 5 10 11 10s8-3 9-4h6c-1 2-5 9-15 9s-17-7-17-16c0-10 7-16 16-16s16 7 16 17m-25-5h19c-2-5-5-7-10-7s-8 2-9 7M772 223c0 8-7 15-17 15s-16-6-16-17l1-9c0-10 5-17 17-19l12-2v6l-12 2c-8 1-11 4-12 13 2-3 6-5 11-5 9 0 16 6 16 16m-6 0c0-6-4-11-11-11-6 0-10 5-10 11s4 10 10 10c7 0 11-5 11-10M800 238v-12h-9l-8 12h-6l8-12c-5-2-8-5-8-10 1-5 4-10 12-10h17v31h-6v1zm0-17v-9h-11c-4 0-6 1-6 4s2 5 6 5h11z"></path>
      </g>
    </symbol>
  </defs>
  <use href="#CitilinkLogo" fill="#0000EE"></use>
</svg>
