<svg xmlns:xlink="http://www.w3.org/1999/xlink" width="340" height="70" viewBox="0 0 340 70" fill="none"
     xmlns="http://www.w3.org/2000/svg">
  <path fill-rule="evenodd" clip-rule="evenodd"
        d="M181.724 3.5H159.902C158.691 3.5 157.787 4.50647 157.787 5.61506C157.787 6.72364 158.691 7.58425 159.902 7.58425H168.8V24.5484C168.8 25.6862 169.806 26.6635 170.973 26.6635C172.14 26.6635 173.147 25.6862 173.147 24.5484V7.58425H181.738C182.905 7.58425 183.853 6.72364 183.853 5.61506C183.853 4.50647 182.891 3.5 181.724 3.5ZM152.419 3.50043C151.777 3.50043 151.441 3.67547 151.018 3.93803L131.866 20.2021V5.67383C131.866 4.5069 130.962 3.50043 129.751 3.50043C128.555 3.50043 127.578 4.5069 127.578 5.67383V24.5489C127.578 25.6866 128.555 26.6639 129.751 26.6639C130.393 26.6639 130.86 26.3722 131.283 26.0367L150.275 9.91853V24.5489C150.275 25.6866 151.208 26.6639 152.419 26.6639C153.615 26.6639 154.563 25.6866 154.563 24.5489V5.67383C154.563 4.5069 153.615 3.50043 152.419 3.50043ZM99.834 3.50014H117.192C120.27 3.50014 122.502 5.70271 122.502 8.80965V10.4142C122.502 11.6832 121.524 12.5876 120.387 12.5876C119.22 12.5876 118.286 11.6249 118.286 10.4142V8.88258C118.286 8.28453 117.848 7.58438 117.207 7.58438H99.8486C99.2214 7.58438 98.6817 8.2116 98.6817 8.88258V21.3249C98.6817 21.9668 99.2068 22.5648 99.8486 22.5648H117.207C117.848 22.5648 118.286 21.923 118.286 21.3249V19.7496C118.286 18.5827 119.22 17.5762 120.387 17.5762C121.524 17.5762 122.502 18.5389 122.502 19.7496V21.3979C122.502 24.4465 120.27 26.6782 117.192 26.6782H99.834C96.377 26.6782 94.3787 24.2131 94.3787 21.2666V8.92635C94.3787 5.97986 96.8584 3.50014 99.834 3.50014ZM314.663 3.5C313.467 3.5 312.49 4.50647 312.49 5.6734V24.5484C312.49 25.6862 313.467 26.6635 314.663 26.6635C315.83 26.6635 316.779 25.6862 316.779 24.5484V5.6734C316.779 4.50647 315.83 3.5 314.663 3.5ZM270.715 3.9376C271.138 3.67504 271.474 3.5 272.116 3.5C273.253 3.5 274.289 4.50647 274.289 5.6734V24.5484C274.289 25.6862 273.253 26.6635 272.116 26.6635C270.905 26.6635 269.942 25.6862 269.942 24.5484V9.9181L250.95 26.0363C250.542 26.3718 250.075 26.6635 249.375 26.6635C248.237 26.6635 247.26 25.6862 247.26 24.5484V5.6734C247.26 4.50647 248.237 3.5 249.375 3.5C250.644 3.5 251.548 4.50647 251.548 5.6734V20.2016L270.715 3.9376ZM304.599 3.5C303.403 3.5 302.425 4.50647 302.425 5.6734V13.1417H284.353V5.6734C284.353 4.50647 283.317 3.5 282.179 3.5C281.012 3.5 280.006 4.50647 280.006 5.6734V24.5484C280.006 25.6862 281.012 26.6635 282.179 26.6635C283.317 26.6635 284.353 25.6862 284.353 24.5484V17.2114H302.425V24.5484C302.425 25.6862 303.403 26.6635 304.599 26.6635C305.766 26.6635 306.714 25.6862 306.714 24.5484V5.6734C306.729 4.50647 305.766 3.5 304.599 3.5ZM324.003 15.1109L336.051 22.9147C336.708 23.3378 337.014 24.0379 336.999 24.7527C336.999 25.7883 336.124 26.6927 335.016 26.6927C334.607 26.6927 334.17 26.5614 333.776 26.328L319.131 16.8613C318.533 16.5112 318.226 15.8111 318.226 15.1109C318.226 14.4691 318.489 13.7398 319.131 13.3314L333.776 3.86466C334.199 3.63128 334.666 3.5 335.074 3.5C335.949 3.5 337.014 4.17098 337.014 5.46919C337.014 6.16934 336.693 6.91326 336.051 7.27793L324.003 15.1109ZM232.6 4.63818C232.089 3.76299 231.433 3.50043 230.66 3.50043C229.959 3.50043 229.23 3.86509 228.793 4.56525L217.415 23.5716C217.182 23.9071 217.08 24.2717 217.08 24.6801C217.08 25.7887 218.013 26.6785 219.02 26.6785C219.793 26.6785 220.551 26.2847 220.96 25.6429L230.66 9.5101L240.301 25.6137C240.71 26.2847 241.468 26.6785 242.183 26.6785C243.379 26.6785 244.225 25.7012 244.225 24.578C244.225 24.1696 244.123 23.805 243.933 23.4695L232.6 4.63818ZM210.489 3.9376C210.898 3.67504 211.219 3.5 211.861 3.5C213.071 3.5 214.034 4.50647 214.019 5.6734V24.5484C214.019 25.6862 213.057 26.6635 211.846 26.6635C210.664 26.6635 209.731 25.6862 209.731 24.5484V9.9181L190.725 26.0363C190.316 26.3718 189.849 26.6635 189.149 26.6635C188.011 26.6635 187.034 25.6862 187.034 24.5484V5.6734C187.034 4.50647 188.011 3.5 189.149 3.5C190.389 3.5 191.323 4.50647 191.323 5.6734V20.2016L210.489 3.9376Z"
        fill="#FE7200"></path>
  <path fill-rule="evenodd" clip-rule="evenodd"
        d="M73.0059 30.7996C74.1635 30.7996 75.087 31.697 75.087 32.8546V40.2684C75.087 44.9377 72.3686 49.334 65.9303 49.334H58.5296H56.5526L56.6437 45.458H58.5296H65.9043C68.9869 45.458 70.9509 43.52 70.9509 40.4114V32.8546C70.9509 31.697 71.8483 30.7996 73.0059 30.7996ZM17.274 49.347L30.1945 66.2164C31.0149 67.2817 31.8842 68.3837 33.0597 69.1061C34.3576 69.8653 35.7535 70 37.2474 70H46.7981C47.9246 70 48.9654 69.8286 49.945 69.2898C51.2062 68.5674 51.9898 67.4409 52.4674 66.1062C53.202 64.0859 53.9245 62.0655 54.6346 60.0452C55.1612 58.5881 55.5652 57.131 55.8346 55.6126C56.1407 53.8984 56.2632 52.1352 56.2632 50.3842V38.2499C56.2632 36.9274 55.7366 35.6418 54.7816 34.7112C53.851 33.7806 52.5898 33.2296 51.2674 33.2296C50.6184 33.2296 49.9817 33.3643 49.3817 33.5969L49.0144 33.7684L48.843 33.3765C48.5858 32.85 48.2307 32.3602 47.8267 31.9439C46.8961 31.0133 45.6349 30.4623 44.288 30.4623C43.5043 30.4623 42.7452 30.6582 42.0472 31.0011L41.7044 31.1725L41.5085 30.8541C41.3126 30.5725 41.0922 30.2909 40.8595 30.046C39.9044 29.1154 38.6432 28.5644 37.3208 28.5644C36.8433 28.5644 36.3413 28.6501 35.8882 28.7848L35.325 28.9562L35.3495 18.7565C35.3495 16.0015 33.0842 13.7607 30.3537 13.7607C27.5986 13.7607 25.3334 16.0015 25.3334 18.7565L25.3579 40.8702L23.0314 38.7641C21.4886 37.356 19.3458 36.4866 17.2398 37.0499C15.0847 37.6376 13.5909 39.5233 13.4194 41.7396C13.3098 43.0659 13.6792 44.3516 14.3625 45.471H12.5253H9.18264C6.08708 45.471 4.13609 43.533 4.13609 40.4244V8.92251C4.13609 5.81394 6.10009 3.87596 9.18264 3.87596H65.9173C69.0129 3.87596 70.9639 5.81394 70.9639 8.92251V16.4923C70.9639 17.6499 71.8613 18.5474 73.0189 18.5474C74.1765 18.5474 75.1 17.6499 75.1 16.4923V9.06559C75.1 4.40923 72.3816 0 65.9434 0H9.13062C2.71838 0 0 4.39622 0 9.06559V40.2814C0 44.9377 2.71838 49.347 9.13062 49.347H15.3348H17.274ZM52.8714 55.1106C53.1286 53.5556 53.2632 51.9638 53.2632 50.3842H53.202V38.2376C53.202 37.7233 52.9816 37.2213 52.6143 36.854C52.247 36.4622 51.7449 36.2662 51.2307 36.2662C50.6919 36.2662 50.1899 36.4866 49.8225 36.854C49.4552 37.2213 49.2593 37.7233 49.2593 38.2376L49.2348 39.4988C49.2348 40.3192 48.5613 40.9926 47.7409 40.9926C46.8961 40.9926 46.2226 40.3192 46.2226 39.4743V35.4826C46.2226 34.9438 46.0267 34.4418 45.6594 34.0745C45.2676 33.7071 44.7778 33.5112 44.2513 33.5112C43.737 33.5112 43.235 33.7071 42.8676 34.0745C42.537 34.3928 42.3044 34.8336 42.3044 35.2867L42.2799 38.2009C42.2799 39.0458 41.6064 39.7192 40.7616 39.7192C39.9412 39.6947 39.2432 39.0213 39.2432 38.2009L39.2677 35.4826V33.5969C39.2677 33.0827 39.0473 32.5806 38.68 32.2133C38.3126 31.8215 37.8229 31.6256 37.2963 31.6256C36.7821 31.6256 36.28 31.8215 35.9127 32.1888C35.5454 32.5561 35.325 33.0704 35.325 33.5969V38.2254C35.325 39.0702 34.6515 39.7437 33.8066 39.7437C32.9863 39.7437 32.2883 39.0702 32.2883 38.2254V34.6867L32.3128 18.781C32.3128 16.1729 28.3456 16.1974 28.3456 18.781L28.3701 44.3232C28.3701 45.168 27.6966 45.8415 26.8517 45.8415C26.4477 45.8415 26.0558 45.6456 25.7497 45.3639L20.9988 40.9804C19.958 40.0498 18.3295 39.3764 17.1296 40.4784C16.701 40.8702 16.4439 41.4702 16.4194 42.0824C16.3704 43.0987 16.7622 43.7109 17.35 44.4701L32.6067 64.3675C32.6439 64.4158 32.6821 64.4654 32.7211 64.5161C33.2456 65.1984 33.9204 66.0763 34.627 66.4981C35.3617 66.9266 36.427 66.9756 37.2719 66.9756H46.8226C47.3859 66.9756 47.9858 66.9389 48.4879 66.6572C49.1981 66.2409 49.4429 65.6287 49.7001 64.894L51.8306 59.0166C52.2837 57.7309 52.6388 56.433 52.8714 55.1106Z"
        fill="#FE7200"></path>
  <path
    d="M97.38 43.4H100.612C100.564 45.176 99.588 46.12 98.26 46.12C97.124 46.12 96.58 45.576 96.26 44.68H95.14C95.46 46.088 96.484 47.112 98.26 47.112C100.292 47.112 101.7 45.704 101.7 43.272V42.568C101.7 40.328 100.308 38.888 98.26 38.888C96.484 38.888 95.46 39.912 95.14 41.16H96.26C96.58 40.424 97.124 39.88 98.26 39.88C99.572 39.88 100.564 40.824 100.612 42.44H97.38V43.4ZM104.502 47.112H104.742C106.214 47.112 107.158 46.168 107.158 42.84V39.96H110.486V47H111.542V39H106.102V42.84C106.102 45.512 105.494 46.12 104.742 46.12H104.502V47.112ZM118.981 47.112C120.949 47.112 122.021 46.04 122.341 44.664H121.253C120.933 45.496 120.309 46.12 118.981 46.12C117.557 46.12 116.629 45.192 116.629 43.352V43.304H122.421V42.648C122.421 40.248 121.061 38.888 118.981 38.888C116.901 38.888 115.541 40.248 115.541 42.648V43.352C115.541 45.768 116.885 47.112 118.981 47.112ZM118.981 39.88C120.325 39.88 121.237 40.712 121.317 42.376H116.629C116.725 40.776 117.605 39.88 118.981 39.88ZM131.509 47H132.821L129.861 42.856L132.501 39H131.189L128.901 42.36H127.477V39H126.421V47H127.477V43.32H128.901L131.509 47ZM135.377 39.96H138.049V47H139.105V39.96H141.777V39H135.377V39.96ZM148.885 47.112C150.709 47.112 152.021 45.8 152.021 43.352V42.648C152.021 40.184 150.725 38.888 148.885 38.888C147.701 38.888 146.789 39.368 146.245 40.344L146.117 39H145.301V50.2H146.357V45.832C146.901 46.696 147.781 47.112 148.885 47.112ZM148.645 46.12C147.301 46.12 146.357 45.128 146.357 43.352V42.52C146.405 40.808 147.365 39.88 148.645 39.88C150.005 39.88 150.933 40.808 150.933 42.648V43.352C150.933 45.208 150.021 46.12 148.645 46.12ZM159.054 47.112C161.166 47.112 162.574 45.704 162.574 43.352V42.648C162.574 40.28 161.182 38.888 159.054 38.888C156.942 38.888 155.534 40.296 155.534 42.648V43.352C155.534 45.72 156.926 47.112 159.054 47.112ZM159.054 46.12C157.63 46.12 156.622 45.112 156.622 43.352V42.648C156.622 40.872 157.614 39.88 159.054 39.88C160.478 39.88 161.486 40.888 161.486 42.648V43.352C161.486 45.128 160.494 46.12 159.054 46.12ZM172.075 47H173.131V39H172.075V42.44H167.627V39H166.571V47H167.627V43.4H172.075V47ZM183.116 47H184.172V39H183.116V42.44H178.668V39H177.612V47H178.668V43.4H183.116V47ZM188.653 47H191.485C193.709 47 194.733 45.976 194.733 44.44C194.733 42.872 193.741 41.88 191.485 41.88H189.709V39H188.653V47ZM191.485 42.84C193.037 42.84 193.645 43.448 193.645 44.44C193.645 45.448 193.069 46.04 191.485 46.04H189.709V42.84H191.485ZM196.237 47H197.293V39H196.237V47ZM207.276 47H208.332V39H207.02L203.82 44.12L202.828 45.8V39H201.772V47H203.084L206.284 41.88L207.276 40.216V47ZM205.052 37.992C206.38 37.992 207.212 37.176 207.212 35.8H206.22C206.22 36.744 205.804 37.16 205.052 37.16C204.332 37.16 203.916 36.744 203.916 35.8H202.892C202.892 37.176 203.724 37.992 205.052 37.992ZM224.638 49.08H225.694V46.04H224.574V39H219.214V41.4C219.214 44.056 219.054 44.904 218.302 46.04H217.454V49.08H218.51V47H224.638V49.08ZM220.27 41.4V39.96H223.518V46.04H219.534C220.062 45.032 220.27 44.056 220.27 41.4ZM234.635 47H235.691V39H234.379L231.179 44.12L230.187 45.8V39H229.131V47H230.443L233.643 41.88L234.635 40.216V47ZM243.132 47.112C244.908 47.112 245.932 46.088 246.252 44.68H245.132C244.812 45.576 244.268 46.12 243.132 46.12C241.788 46.12 240.78 45.112 240.78 43.352V42.648C240.78 40.872 241.772 39.88 243.132 39.88C244.268 39.88 244.812 40.424 245.132 41.16H246.252C245.932 39.912 244.908 38.888 243.132 38.888C241.1 38.888 239.692 40.296 239.692 42.648V43.352C239.692 45.72 241.084 47.112 243.132 47.112ZM255.098 47H256.41L253.45 42.856L256.09 39H254.778L252.49 42.36H251.066V39H250.01V47H251.066V43.32H252.49L255.098 47ZM261.69 47.112C262.89 47.112 263.914 46.504 264.474 45.496L264.634 47H265.45V41.56C265.45 39.88 264.458 38.888 262.57 38.888C260.65 38.888 259.69 39.848 259.61 41.16H260.746C260.826 40.376 261.402 39.88 262.57 39.88C263.866 39.88 264.394 40.408 264.394 41.56V42.28H262.57C260.17 42.28 259.21 43.24 259.21 44.792C259.21 46.232 260.09 47.112 261.69 47.112ZM261.77 46.12C260.81 46.12 260.298 45.608 260.298 44.792C260.298 43.864 260.922 43.24 262.57 43.24H264.394V43.608C264.394 44.968 263.242 46.12 261.77 46.12ZM270.65 50.2H271.77L276.09 39H274.97L272.458 45.688L269.754 39H268.57L271.882 47L270.65 50.2ZM285.106 47H286.162V39H285.106V42.44H280.658V39H279.602V47H280.658V43.4H285.106V47ZM289.684 39.96H292.356V47H293.412V39.96H296.084V39H289.684V39.96ZM302.254 47.112C304.222 47.112 305.294 46.04 305.614 44.664H304.526C304.206 45.496 303.582 46.12 302.254 46.12C300.83 46.12 299.902 45.192 299.902 43.352V43.304H305.694V42.648C305.694 40.248 304.334 38.888 302.254 38.888C300.174 38.888 298.814 40.248 298.814 42.648V43.352C298.814 45.768 300.158 47.112 302.254 47.112ZM302.254 39.88C303.598 39.88 304.51 40.712 304.59 42.376H299.902C299.998 40.776 300.878 39.88 302.254 39.88ZM313.279 47.112C315.103 47.112 316.415 45.8 316.415 43.352V42.648C316.415 40.184 315.119 38.888 313.279 38.888C312.095 38.888 311.183 39.368 310.639 40.344L310.511 39H309.695V50.2H310.751V45.832C311.295 46.696 312.175 47.112 313.279 47.112ZM313.039 46.12C311.695 46.12 310.751 45.128 310.751 43.352V42.52C310.799 40.808 311.759 39.88 313.039 39.88C314.399 39.88 315.327 40.808 315.327 42.648V43.352C315.327 45.208 314.415 46.12 313.039 46.12Z"
    fill="#151528"></path>
</svg>
