<svg xmlns:xlink="http://www.w3.org/1999/xlink" xmlns="http://www.w3.org/2000/svg"
     class="MainHeader__search-open-icon Icon Icon_size_m" width="24" height="24">
  <defs>
    <symbol viewBox="0 0 24 24" id="Search">
      <path fill-rule="evenodd" clip-rule="evenodd"
            d="M5.22703 5.22703C7.86307 2.591 12.1369 2.591 14.773 5.22703C17.2298 7.68382 17.3968 11.5632 15.2742 14.2135L19.0607 18L18 19.0607L14.2135 15.2742C11.5632 17.3968 7.68381 17.2298 5.22703 14.773C2.59099 12.1369 2.59099 7.86307 5.22703 5.22703ZM13.7123 6.28769C11.6621 4.23744 8.33794 4.23744 6.28769 6.28769C4.23744 8.33795 4.23744 11.6621 6.28769 13.7123C8.33794 15.7626 11.6621 15.7626 13.7123 13.7123C15.7626 11.6621 15.7626 8.33795 13.7123 6.28769Z"></path>
    </symbol>
  </defs>
  <use href="#Search" fill="#151528"></use>
</svg>
