<svg xmlns:xlink="http://www.w3.org/1999/xlink" xmlns="http://www.w3.org/2000/svg" class=" Icon Icon_size_m" width="20"
     height="20">
  <defs>
    <symbol viewBox="0 0 20 20" id="Basket">
      <path fill-rule="evenodd" clip-rule="evenodd"
            d="M7.5 19C8.32843 19 9 18.3284 9 17.5C9 16.6716 8.32843 16 7.5 16C6.67157 16 6 16.6716 6 17.5C6 18.3284 6.67157 19 7.5 19Z"></path>
      <path fill-rule="evenodd" clip-rule="evenodd"
            d="M14.5 19C15.3284 19 16 18.3284 16 17.5C16 16.6716 15.3284 16 14.5 16C13.6716 16 13 16.6716 13 17.5C13 18.3284 13.6716 19 14.5 19Z"></path>
      <path fill-rule="evenodd" clip-rule="evenodd"
            d="M3.44198 3.75H1V2.25H4C4.33121 2.25 4.6232 2.46725 4.71837 2.78449L7.29078 11.3592C7.4494 11.8879 7.93605 12.25 8.48806 12.25H14.4914C15.0495 12.25 15.54 11.88 15.6933 11.3434L17.0057 6.75H10.5V5.25H18C18.2353 5.25 18.457 5.36047 18.5988 5.54835C18.7405 5.73624 18.7858 5.97975 18.7211 6.20604L17.1356 11.7555C16.7983 12.9361 15.7192 13.75 14.4914 13.75H8.48806C7.27364 13.75 6.203 12.9534 5.85404 11.7902L3.44198 3.75Z"></path>
    </symbol>
  </defs>
  <use href="#Basket" fill="#5D5D64"></use>
</svg>
